<svg width="21" height="21" viewBox="0 0 21 21" fill="none" xmlns="http://www.w3.org/2000/svg">
<path d="M13.9343 18.9452L13.0019 12.6902C13.0019 12.4465 13.1714 12.2028 13.4257 12.1216L19.9531 11.228C20.2074 11.228 20.3769 10.9843 20.3769 10.6594L19.8683 7.16633C19.8683 6.92263 19.614 6.76016 19.2749 6.76016L12.7475 7.65372C12.4932 7.65372 12.2389 7.49126 12.1542 7.24756L11.2216 0.992592C11.2216 0.748892 10.9673 0.586426 10.6282 0.586426L6.98308 1.07383C6.72877 1.07383 6.55923 1.31753 6.55923 1.64246L7.49174 7.89742C7.49174 8.14112 7.3222 8.38482 7.06789 8.46606L0.540494 9.35963C0.286181 9.35963 0.116638 9.60332 0.116638 9.92826L0.625245 13.4213C0.625245 13.665 0.879569 13.8275 1.21865 13.8275L7.74605 12.9339C8.00036 12.9339 8.25468 13.0964 8.33945 13.3401L9.27192 19.595C9.27192 19.8387 9.52624 20.0012 9.86532 20.0012L13.5105 19.5138C13.7648 19.4326 13.9343 19.1889 13.9343 18.9452Z" fill="#FDD08D"/>
</svg>
