<svg width="29" height="20" viewBox="0 0 29 20" fill="none" xmlns="http://www.w3.org/2000/svg">
<path d="M28.2299 7.64988C28.2299 7.09832 28.1831 6.3789 28.0895 5.51559C28.0193 4.65228 27.9023 3.88489 27.762 3.21343C27.5982 2.44604 27.2472 1.82254 26.7091 1.29496C26.171 0.767386 25.5393 0.479616 24.8141 0.383693C22.5681 0.119904 19.1523 0 14.5901 0C10.0278 0 6.61204 0.119904 4.36603 0.383693C3.64076 0.479616 3.00907 0.767386 2.47096 1.29496C1.93286 1.82254 1.58192 2.44604 1.41815 3.21343C1.25438 3.88489 1.16079 4.65228 1.06721 5.51559C0.997022 6.3789 0.95023 7.09832 0.926834 7.64988C0.926834 8.22542 0.926834 8.99281 0.926834 10C0.926834 11.0072 0.926834 11.7746 0.95023 12.3501C0.95023 12.9017 0.997022 13.6211 1.09061 14.4844C1.1374 15.3477 1.25438 16.1151 1.39475 16.7866C1.55852 17.554 1.90946 18.1775 2.44757 18.705C2.98567 19.2326 3.61736 19.5204 4.34264 19.6163C6.58865 19.8801 10.0044 20 14.5667 20C19.1289 20 22.5447 19.8801 24.7907 19.6163C25.5159 19.5444 26.1476 19.2326 26.6857 18.705C27.2238 18.1775 27.5748 17.554 27.7386 16.7866C27.9023 16.1151 27.9959 15.3477 28.0895 14.4844C28.1597 13.6211 28.2065 12.9017 28.2299 12.3501C28.2299 11.7986 28.2533 11.0072 28.2533 10C28.2533 8.99281 28.2533 8.22542 28.2299 7.64988ZM19.9945 10.8393L12.1803 15.8513C12.0399 15.9472 11.8761 16.0192 11.6656 16.0192C11.5018 16.0192 11.3614 15.9712 11.1976 15.8993C10.8701 15.7074 10.6829 15.4197 10.6829 15.012V5.01199C10.6829 4.60432 10.8467 4.31655 11.1976 4.1247C11.5486 3.93285 11.8761 3.95683 12.1803 4.14868L16.0874 6.65468L19.9945 9.16067C20.2987 9.32854 20.4624 9.61631 20.4624 10C20.439 10.3837 20.2987 10.6715 19.9945 10.8393Z" fill="black"/>
</svg>
