<svg width="23" height="22" viewBox="0 0 23 22" fill="none" xmlns="http://www.w3.org/2000/svg">
<path d="M5.43002 7.14941H0.610451V22H5.43002V7.14941Z" fill="black"/>
<path d="M21.2562 8.50559C20.2474 7.37916 18.9024 6.80444 17.2436 6.80444C16.6383 6.80444 16.0779 6.87341 15.5623 7.03433C15.0692 7.19525 14.6433 7.40214 14.2846 7.67801C13.9483 7.95387 13.6569 8.20674 13.4552 8.45962C13.2534 8.6895 13.0741 8.94237 12.8948 9.24123V7.12628H8.0976L8.12002 7.83893C8.12002 8.32168 8.14244 9.79295 8.14244 12.2757C8.14244 14.7585 8.14244 17.9769 8.12002 21.9769H12.9172V13.701C12.9172 13.1952 12.962 12.7815 13.0741 12.4826C13.2758 11.9769 13.5897 11.5401 13.9932 11.1952C14.3967 10.8504 14.9123 10.6895 15.5399 10.6895C16.3693 10.6895 16.997 10.9884 17.3781 11.5861C17.7816 12.1838 17.9609 13.0113 17.9609 14.0458V21.9769H22.7581V13.4711C22.7805 11.2872 22.2873 9.63203 21.2562 8.50559Z" fill="black"/>
<path d="M3.05387 0C2.24687 0 1.59679 0.252874 1.10363 0.735632C0.588044 1.21839 0.341461 1.81609 0.341461 2.55172C0.341461 3.28736 0.588044 3.88506 1.08121 4.39081C1.57437 4.87356 2.20204 5.12644 3.00904 5.12644H3.03145C3.86087 5.12644 4.51095 4.87356 5.00412 4.39081C5.49728 3.90805 5.74386 3.28736 5.74386 2.55172C5.74386 1.81609 5.47486 1.1954 5.00412 0.712644C4.51095 0.252874 3.86087 0 3.05387 0Z" fill="black"/>
</svg>
