<svg width="25" height="20" viewBox="0 0 25 20" fill="none" xmlns="http://www.w3.org/2000/svg">
<path d="M24.6813 2.3741C23.7314 2.78177 22.7577 3.04556 21.8077 3.16547C22.9002 2.51799 23.6126 1.58273 24.0164 0.383693C23.0189 0.959233 21.9502 1.36691 20.834 1.58273C19.8365 0.527578 18.6253 0 17.1767 0C15.7992 0 14.6118 0.503597 13.638 1.48681C12.6643 2.47002 12.1656 3.66906 12.1656 5.05995C12.1656 5.44365 12.2131 5.82734 12.2844 6.21103C10.2419 6.11511 8.31827 5.58753 6.53709 4.65228C4.75591 3.71703 3.23598 2.47002 1.97728 0.935252C1.52605 1.72662 1.28856 2.56595 1.28856 3.47722C1.28856 4.34053 1.47855 5.15588 1.88228 5.8753C2.28602 6.6187 2.83224 7.21823 3.49722 7.67386C2.68975 7.64988 1.92978 7.43405 1.24106 7.02638V7.09832C1.24106 8.32134 1.62104 9.3765 2.38101 10.3118C3.14098 11.223 4.09094 11.8225 5.25464 12.0623C4.82716 12.1823 4.37593 12.2302 3.94845 12.2302C3.66346 12.2302 3.35472 12.2062 2.99849 12.1583C3.30722 13.1655 3.90095 14.0048 4.75591 14.6523C5.61088 15.2998 6.58459 15.6355 7.67704 15.6595C5.87212 17.0983 3.7822 17.8177 1.47855 17.8177C1.02732 17.8177 0.623585 17.7938 0.267349 17.7458C2.59475 19.2566 5.15965 20 7.93828 20C9.71946 20 11.3819 19.7122 12.9493 19.1607C14.5168 18.5851 15.8467 17.8417 16.9392 16.8825C18.0316 15.9233 19.0053 14.8201 19.789 13.5971C20.5965 12.3501 21.1902 11.0552 21.5702 9.71223C21.9502 8.3693 22.1639 7.0024 22.1639 5.65947C22.1639 5.3717 22.1639 5.15588 22.1402 5.01199C23.1614 4.26858 23.9926 3.40528 24.6813 2.3741Z" fill="black"/>
</svg>
